<?xml version="1.0" encoding="UTF-8" standalone="no"?>
<!-- Created with Inkscape (http://www.inkscape.org/) -->

<svg
   width="320"
   height="240"
   viewBox="0 0 319.99999 240"
   version="1.1"
   id="svg1"
   inkscape:version="1.4 (e7c3feb1, 2024-10-09)"
   sodipodi:docname="Logo with glow.svg"
   inkscape:export-filename="drawing.svg.2024_12_23_12_09_47.0.png"
   inkscape:export-xdpi="692.0321"
   inkscape:export-ydpi="692.0321"
   xmlns:inkscape="http://www.inkscape.org/namespaces/inkscape"
   xmlns:sodipodi="http://sodipodi.sourceforge.net/DTD/sodipodi-0.dtd"
   xmlns="http://www.w3.org/2000/svg"
   xmlns:svg="http://www.w3.org/2000/svg">
  <sodipodi:namedview
     id="namedview1"
     pagecolor="#000000"
     bordercolor="#000000"
     borderopacity="0.25"
     inkscape:showpageshadow="2"
     inkscape:pageopacity="0.0"
     inkscape:pagecheckerboard="0"
     inkscape:deskcolor="#d1d1d1"
     inkscape:document-units="px"
     inkscape:zoom="3.5867988"
     inkscape:cx="160.03128"
     inkscape:cy="119.88406"
     inkscape:window-width="1728"
     inkscape:window-height="1051"
     inkscape:window-x="0"
     inkscape:window-y="38"
     inkscape:window-maximized="1"
     inkscape:current-layer="layer1" />
  <defs
     id="defs1">
    <rect
       x="-86.092712"
       y="237.08609"
       width="367.54968"
       height="53.642384"
       id="rect9" />
    <rect
       x="-29.139072"
       y="196.68874"
       width="429.13907"
       height="119.86755"
       id="rect4" />
    <rect
       x="-158.27815"
       y="198.01324"
       width="502.64902"
       height="124.50331"
       id="rect3" />
    <rect
       x="-190.06622"
       y="141.0596"
       width="543.70862"
       height="164.2384"
       id="rect2" />
    <rect
       x="-29.139072"
       y="196.68874"
       width="429.13907"
       height="119.86755"
       id="rect4-0" />
    <filter
       style="color-interpolation-filters:sRGB;"
       inkscape:label="Blur"
       id="filter1"
       x="-0.034601657"
       y="-0.04529143"
       width="1.0692033"
       height="1.0905829">
      <feGaussianBlur
         stdDeviation="4 4"
         result="blur"
         id="feGaussianBlur1" />
    </filter>
  </defs>
  <g
     inkscape:label="Layer 1"
     inkscape:groupmode="layer"
     id="layer1"
     transform="translate(74.722656)">
    <text
       xml:space="preserve"
       transform="translate(-74.722656)"
       id="text3"
       style="font-style:normal;font-variant:normal;font-weight:normal;font-stretch:normal;font-size:42.6667px;font-family:Kokonor;-inkscape-font-specification:Kokonor;text-align:start;letter-spacing:16px;writing-mode:lr-tb;direction:ltr;white-space:pre;shape-inside:url(#rect4);display:inline;fill:#000000;fill-opacity:1" />
    <text
       xml:space="preserve"
       transform="translate(-322.40478,-52.318342)"
       id="text3-1"
       style="font-style:normal;font-variant:normal;font-weight:normal;font-stretch:normal;font-size:42.6667px;font-family:Kokonor;-inkscape-font-specification:Kokonor;text-align:start;letter-spacing:16px;writing-mode:lr-tb;direction:ltr;white-space:pre;shape-inside:url(#rect4-0);display:inline;fill:#000000;fill-opacity:1" />
    <g
       id="g2"
       transform="translate(21.278319,14.019685)"
       style="filter:url(#filter1);fill:#00ff00">
      <path
         id="path8-9"
         style="fill:#00ff00;fill-opacity:1;stroke-width:0.264581"
         d="m 1.1542971,140.83594 c -2.1743511,0 -4.2261107,0.44217 -6.1542969,1.32422 -1.907673,0.86152 -3.631473,1.93816 -5.1699222,3.23046 v -3.5996 h -5.783203 v 47.04492 h 5.783203 v -14.40039 c 1.4974162,0.82051 2.9645079,1.42667 4.400391,1.8164 1.4564028,0.38974 3.0767276,0.58399 4.86132812,0.58399 2.05127188,0 3.99077938,-0.40996 5.81640628,-1.23047 1.8461403,-0.84101 3.4449912,-2.02112 4.7988281,-3.53906 1.4564025,-1.59998 2.5847715,-3.5483 3.3847655,-5.84571 0.799993,-2.31794 1.201172,-4.87239 1.201172,-7.66211 0,-5.55893 -1.160582,-9.89769 -3.478516,-13.01562 -2.2974227,-3.13844 -5.5166055,-4.70703 -9.6601559,-4.70703 z m 126.6132829,0 c -2.03076,0 -4.01126,0.4207 -5.93945,1.26172 -1.9282,0.84102 -3.79449,2.0104 -5.59961,3.50781 v -3.81445 h -5.78516 v 34.36914 h 5.78516 v -25.66211 c 1.57948,-1.21025 3.23201,-2.20489 4.95507,-2.98438 1.72307,-0.77948 3.37366,-1.16992 4.95313,-1.16992 1.53845,0 2.78981,0.21571 3.75391,0.64648 0.96409,0.41025 1.70202,1.04668 2.21484,1.90821 0.4923,0.77949 0.831,1.86686 1.01562,3.26172 0.18462,1.37434 0.27735,2.8502 0.27735,4.42968 v 19.57032 h 5.78515 v -22.3086 c 0,-4.20511 -0.97512,-7.42623 -2.92382,-9.66211 -1.9487,-2.23588 -4.7794,-3.35351 -8.49219,-3.35351 z m 60.46094,0 c -5.00509,0 -9.04615,1.65254 -12.12305,4.95508 -3.05639,3.30254 -4.58399,7.76234 -4.58399,13.38281 0,5.68201 1.59885,10.07251 4.79883,13.16992 3.19997,3.07691 7.65295,4.61523 13.35547,4.61523 2.23589,0 4.36769,-0.27623 6.39844,-0.83007 2.03076,-0.55384 4.022,-1.24199 5.9707,-2.0625 v -6.30664 h -0.30859 c -1.00513,0.90254 -2.6967,1.82594 -5.07617,2.76953 -2.35895,0.92307 -4.70843,1.38476 -7.04688,1.38476 -1.76409,0 -3.38442,-0.24792 -4.86133,-0.74023 -1.45641,-0.49231 -2.71848,-1.23025 -3.78515,-2.21485 -1.10768,-1.00514 -1.97934,-2.28674 -2.61524,-3.8457 -0.63589,-1.57946 -0.95312,-3.42624 -0.95312,-5.53906 h 25.32226 v -3.13867 c 0,-4.98458 -1.26209,-8.82944 -3.78515,-11.53711 -2.50255,-2.70768 -6.07116,-4.0625 -10.70703,-4.0625 z m -248.919926,0.12304 c -2.194858,0 -4.186103,0.28698 -5.970703,0.86133 -1.764094,0.55384 -3.220429,1.31324 -4.369141,2.27735 -1.189724,0.9846 -2.080906,2.10225 -2.675781,3.35351 -0.57435,1.25128 -0.861328,2.58463 -0.861328,4 0,2.25641 0.625682,4.1637 1.876953,5.72266 1.271784,1.53845 3.414323,2.70781 6.429687,3.50781 1.087172,0.28717 2.286806,0.55462 3.59961,0.80078 1.333331,0.24615 2.409962,0.46187 3.230469,0.64649 2.215371,0.4923 3.714659,1.08772 4.49414,1.78515 0.779474,0.69743 1.167969,1.72233 1.167969,3.07617 0,1.76409 -0.718414,3.05646 -2.154297,3.87696 -1.43589,0.82051 -3.425181,1.23047 -5.96875,1.23047 -2.051272,0 -4.193809,-0.39923 -6.429687,-1.19922 -2.235884,-0.82051 -4.268129,-1.91862 -6.09375,-3.29297 h -0.306641 v 6.49219 c 1.43589,0.71793 3.209461,1.38461 5.322266,2 2.133318,0.59486 4.472051,0.89257 7.015625,0.89257 4.492275,0 8.030646,-1.00537 10.615234,-3.01562 2.605115,-2.01024 3.908203,-4.58424 3.908203,-7.72266 0,-2.50256 -0.729145,-4.51331 -2.185547,-6.03125 -1.456397,-1.49742 -3.527682,-2.55453 -6.214844,-3.16992 -0.882039,-0.20512 -1.988934,-0.42962 -3.322265,-0.67578 -1.312804,-0.24615 -2.503648,-0.49212 -3.570313,-0.73828 -1.928186,-0.45127 -3.322059,-1.03597 -4.183593,-1.75391 -0.882047,-0.71794 -1.324219,-1.78579 -1.324219,-3.20117 0,-1.59998 0.729143,-2.79959 2.185547,-3.59961 1.456395,-0.82049 3.240711,-1.23047 5.353515,-1.23047 2.030753,0 4.102032,0.3797 6.214844,1.13867 2.112798,0.73846 3.907857,1.65112 5.384766,2.73829 h 0.308593 v -6.18555 c -1.394863,-0.71795 -3.148921,-1.32214 -5.261718,-1.81445 -2.092299,-0.5128 -4.163578,-0.76954 -6.214844,-0.76954 z m 107.382812,0.83204 v 22.30664 c 0,4.26663 1.005382,7.50729 3.015625,9.72265 2.010243,2.19486 4.82141,3.29297 8.431641,3.29297 2.153831,0 4.121648,-0.40998 5.90625,-1.23047 1.784603,-0.82052 3.650906,-2.0006 5.599609,-3.53906 v 3.81641 h 5.785157 v -34.36914 h -5.785157 v 25.66015 c -1.53845,1.21026 -3.199771,2.20489 -4.984375,2.98438 -1.764089,0.77947 -3.393199,1.16992 -4.890625,1.16992 -1.682038,0 -2.963658,-0.20499 -3.845703,-0.61524 -0.882041,-0.41025 -1.600445,-1.0662 -2.154297,-1.96875 -0.533323,-0.88205 -0.88277,-1.93917 -1.046875,-3.16992 -0.164104,-1.25128 -0.246093,-2.74862 -0.246093,-4.49219 v -19.56835 z m 141.230474,3.81445 c 3.0769,0 5.36389,0.83065 6.86132,2.49219 1.5179,1.66152 2.2861,4.01101 2.30664,7.04687 h -19.6914 c 0.24615,-2.70766 1.28179,-4.97515 3.10742,-6.80078 1.84614,-1.82562 4.31861,-2.73828 7.41602,-2.73828 z m -188.24414538,0.73828 c 2.93331228,0 5.10611458,1.02489 6.52148438,3.07617 1.4153767,2.05125 2.1230469,5.14941 2.1230469,9.29297 0,4.26664 -0.9019107,7.48778 -2.7070313,9.66211 -1.8051137,2.17436 -4.3185724,3.26172 -7.5390625,3.26172 -1.4974227,0 -2.8395587,-0.13372 -4.0292969,-0.40039 -1.1692249,-0.26667 -2.5757953,-0.76935 -4.2167972,-1.50781 v -19.47657 c 1.5384492,-1.16922 3.1499969,-2.11408 4.8320316,-2.83203 1.6820412,-0.71795 3.354097,-1.07617 5.01562502,-1.07617 z" />
      <path
         id="rect8-0"
         style="fill:#00ff00;fill-opacity:1;stroke-width:2.01005"
         d="M 23.999236,0 C 10.703336,0 -7.6368945e-4,10.704095 -7.6368945e-4,24 v 80 c 0,13.2959 10.70409968945,24 23.99999968945,24 h 80.000004 c 13.29591,0 24,-10.7041 24,-24 V 24 c 0,-13.295905 -10.70409,-24 -24,-24 z m 40,15 a 22.75,30.5 0 0 1 22.75,30.5 22.75,30.5 0 0 1 -18.923819,30.009766 v 0.472656 c 0.11625,2.495882 0.29745,4.985564 0.54882,7.466797 1.30936,13.174998 4.55679,26.131261 9.85743,38.126951 L 76.053927,122.5 h -7.13281 c -4.714471,-12.33219 -7.486931,-25.320167 -8.412111,-38.384766 -0.18746,-2.710282 -0.30105,-5.422321 -0.3418,-8.132812 v -0.47461 A 22.75,30.5 0 0 1 41.249236,45.5 22.75,30.5 0 0 1 63.999236,15 Z" />
      <path
         style="font-size:16px;-inkscape-font-specification:sans-serif;letter-spacing:5.92px;white-space:pre;fill:#00ff00"
         d="m -82.248047,251.68322 h -1.867187 v -2.22656 h 1.867187 z m 11.740313,0 h -1.867188 v -2.22656 h 1.867188 z m 11.740312,0 h -1.867187 v -2.22656 h 1.867187 z m 13.873127,-0.0781 q -0.414062,0.10937 -0.90625,0.17969 -0.484375,0.0703 -0.867187,0.0703 -1.335938,0 -2.03125,-0.71875 -0.695313,-0.71875 -0.695313,-2.30469 v -4.64062 h -0.992187 v -1.23438 h 0.992187 v -2.50781 h 1.46875 v 2.50781 h 3.03125 v 1.23438 h -3.03125 v 3.97656 q 0,0.6875 0.03125,1.07812 0.03125,0.38282 0.21875,0.71875 0.171875,0.3125 0.46875,0.46094 0.304688,0.14063 0.921875,0.14063 0.359375,0 0.75,-0.10157 0.390625,-0.10937 0.5625,-0.17968 h 0.07813 z m 14.990311,0.0781 h -1.46875 v -4.96875 q 0,-0.60156 -0.07031,-1.125 -0.07031,-0.53125 -0.257812,-0.82812 -0.195313,-0.32813 -0.5625,-0.48438 -0.367188,-0.16406 -0.953125,-0.16406 -0.601563,0 -1.257813,0.29688 -0.65625,0.29687 -1.257812,0.75781 v 6.51562 h -1.46875 v -12.15625 h 1.46875 v 4.39844 q 0.6875,-0.57031 1.421875,-0.89062 0.734375,-0.32032 1.507812,-0.32032 1.414063,0 2.15625,0.85157 0.742188,0.85156 0.742188,2.45312 z m 16.052811,-4.21093 h -6.429688 q 0,0.80468 0.242188,1.40625 0.242187,0.59375 0.664062,0.97656 0.40625,0.375 0.960938,0.5625 0.5625,0.1875 1.234375,0.1875 0.890625,0 1.789062,-0.35156 0.90625,-0.35938 1.289063,-0.70313 h 0.07813 v 1.60156 q -0.742188,0.3125 -1.515625,0.52344 -0.773438,0.21094 -1.625,0.21094 -2.171875,0 -3.390625,-1.17188 -1.21875,-1.17968 -1.21875,-3.34375 0,-2.14062 1.164062,-3.39843 1.171875,-1.25782 3.078125,-1.25782 1.765625,0 2.71875,1.03125 0.960938,1.03125 0.960938,2.92969 z m -1.429688,-1.125 q -0.0078,-1.15625 -0.585937,-1.78907 -0.570313,-0.63281 -1.742188,-0.63281 -1.179687,0 -1.882812,0.69531 -0.695313,0.69532 -0.789063,1.72657 z m 15.0215684,-1.78907 h -0.078125 q -0.328125,-0.0781 -0.640625,-0.10937 -0.3046875,-0.0391 -0.7265625,-0.0391 -0.6796875,0 -1.3125,0.30468 -0.6328125,0.29688 -1.21875,0.77344 v 6.19531 h -1.46875 v -8.72656 h 1.46875 v 1.28906 q 0.875,-0.70312 1.5390625,-0.99218 0.671875,-0.29688 1.3671875,-0.29688 0.3828125,0 0.5546875,0.0234 0.171875,0.0156 0.515625,0.0703 z m 14.6074986,2.91407 H 7.9185181 q 0,0.80468 0.2421875,1.40625 0.2421875,0.59375 0.6640625,0.97656 0.40625,0.375 0.9609375,0.5625 0.5625004,0.1875 1.2343754,0.1875 0.890625,0 1.789062,-0.35156 0.90625,-0.35938 1.289063,-0.70313 h 0.07813 v 1.60156 q -0.742188,0.3125 -1.515625,0.52344 -0.773438,0.21094 -1.625,0.21094 -2.1718754,0 -3.3906254,-1.17188 -1.21875,-1.17968 -1.21875,-3.34375 0,-2.14062 1.1640625,-3.39843 1.171875,-1.25782 3.0781249,-1.25782 1.765625,0 2.71875,1.03125 0.960938,1.03125 0.960938,2.92969 z m -1.429688,-1.125 q -0.0078,-1.15625 -0.585937,-1.78907 -0.570313,-0.63281 -1.742188,-0.63281 -1.1796874,0 -1.8828124,0.69531 -0.6953125,0.69532 -0.7890625,1.72657 z m 22.699371,-4.85157 h -1.65625 v -1.52343 h 1.65625 z m -0.09375,10.1875 h -1.46875 v -8.72656 h 1.46875 z m 15.060624,-2.51562 q 0,1.19531 -0.992188,1.96094 -0.984375,0.76562 -2.695312,0.76562 -0.96875,0 -1.78125,-0.22656 -0.804688,-0.23438 -1.351563,-0.50781 v -1.64844 h 0.07813 q 0.695313,0.52344 1.546875,0.83594 0.851563,0.30468 1.632813,0.30468 0.96875,0 1.515625,-0.3125 0.546875,-0.3125 0.546875,-0.98437 0,-0.51563 -0.296875,-0.78125 -0.296875,-0.26563 -1.140625,-0.45313 -0.3125,-0.0703 -0.820313,-0.16406 -0.5,-0.0937 -0.914062,-0.20312 -1.148438,-0.30469 -1.632813,-0.89063 -0.476562,-0.59375 -0.476562,-1.45312 0,-0.53907 0.21875,-1.01563 0.226562,-0.47656 0.679687,-0.85156 0.4375,-0.36719 1.109375,-0.57813 0.679688,-0.21875 1.515625,-0.21875 0.78125,0 1.578125,0.19532 0.804688,0.1875 1.335938,0.46093 v 1.57032 h -0.07813 q -0.5625,-0.41407 -1.367188,-0.69532 -0.804687,-0.28906 -1.578125,-0.28906 -0.804687,0 -1.359375,0.3125 -0.554687,0.30469 -0.554687,0.91406 0,0.53907 0.335937,0.8125 0.328125,0.27344 1.0625,0.44532 0.40625,0.0937 0.90625,0.1875 0.507813,0.0937 0.84375,0.17187 1.023438,0.23438 1.578125,0.80469 0.554688,0.57812 0.554688,1.53125 z m 26.863449,2.51562 h -1.46875 v -4.96875 q 0,-0.60156 -0.07031,-1.125 -0.07031,-0.53125 -0.257812,-0.82812 -0.195313,-0.32813 -0.5625,-0.48438 -0.367188,-0.16406 -0.953125,-0.16406 -0.601563,0 -1.257813,0.29688 -0.65625,0.29687 -1.257812,0.75781 v 6.51562 h -1.46875 v -8.72656 h 1.46875 v 0.96875 q 0.6875,-0.57031 1.421875,-0.89062 0.734375,-0.32032 1.507812,-0.32032 1.414063,0 2.15625,0.85157 0.742188,0.85156 0.742188,2.45312 z m 16.185623,-4.35937 q 0,2.13281 -1.09375,3.36719 -1.09375,1.23437 -2.929688,1.23437 -1.851562,0 -2.945312,-1.23437 -1.085938,-1.23438 -1.085938,-3.36719 0,-2.13281 1.085938,-3.36719 1.09375,-1.24219 2.945312,-1.24219 1.835938,0 2.929688,1.24219 1.09375,1.23438 1.09375,3.36719 z m -1.515625,0 q 0,-1.69531 -0.664063,-2.51563 -0.664062,-0.82812 -1.84375,-0.82812 -1.195312,0 -1.859375,0.82812 -0.65625,0.82032 -0.65625,2.51563 0,1.64062 0.664063,2.49219 0.664062,0.84375 1.851562,0.84375 1.171875,0 1.835938,-0.83594 0.671875,-0.84375 0.671875,-2.5 z m 27.48843,1.84375 q 0,1.19531 -0.99218,1.96094 -0.98438,0.76562 -2.69532,0.76562 -0.96875,0 -1.78125,-0.22656 -0.80468,-0.23438 -1.35156,-0.50781 v -1.64844 h 0.0781 q 0.69531,0.52344 1.54687,0.83594 0.85156,0.30468 1.63281,0.30468 0.96875,0 1.51563,-0.3125 0.54687,-0.3125 0.54687,-0.98437 0,-0.51563 -0.29687,-0.78125 -0.29688,-0.26563 -1.14063,-0.45313 -0.3125,-0.0703 -0.82031,-0.16406 -0.5,-0.0937 -0.91406,-0.20312 -1.14844,-0.30469 -1.63281,-0.89063 -0.47657,-0.59375 -0.47657,-1.45312 0,-0.53907 0.21875,-1.01563 0.22657,-0.47656 0.67969,-0.85156 0.4375,-0.36719 1.10938,-0.57813 0.67968,-0.21875 1.51562,-0.21875 0.78125,0 1.57813,0.19532 0.80468,0.1875 1.33593,0.46093 v 1.57032 h -0.0781 q -0.5625,-0.41407 -1.36719,-0.69532 -0.80469,-0.28906 -1.57812,-0.28906 -0.80469,0 -1.35938,0.3125 -0.55469,0.30469 -0.55469,0.91406 0,0.53907 0.33594,0.8125 0.32813,0.27344 1.0625,0.44532 0.40625,0.0937 0.90625,0.1875 0.50781,0.0937 0.84375,0.17187 1.02344,0.23438 1.57813,0.80469 0.55468,0.57812 0.55468,1.53125 z m 15.70125,-1.95313 q 0,1.0625 -0.30469,1.94532 -0.30468,0.875 -0.85937,1.48437 -0.51563,0.57813 -1.21875,0.89844 -0.69531,0.3125 -1.47656,0.3125 -0.67969,0 -1.23438,-0.14844 -0.54687,-0.14844 -1.11719,-0.46094 v 3.65625 h -1.46875 v -11.94531 h 1.46875 v 0.91406 q 0.58594,-0.49218 1.3125,-0.82031 0.73438,-0.33594 1.5625,-0.33594 1.57813,0 2.45313,1.19532 0.88281,1.1875 0.88281,3.30468 z m -1.51562,0.0391 q 0,-1.57813 -0.53907,-2.35938 -0.53906,-0.78125 -1.65625,-0.78125 -0.63281,0 -1.27343,0.27344 -0.64063,0.27344 -1.22657,0.71875 v 4.94531 q 0.625,0.28125 1.07032,0.38281 0.45312,0.10157 1.02343,0.10157 1.22657,0 1.91407,-0.82813 0.6875,-0.82812 0.6875,-2.45312 z m 16.95906,4.42968 h -1.46875 v -0.96875 q -0.74219,0.58594 -1.42188,0.89844 -0.67968,0.3125 -1.5,0.3125 -1.375,0 -2.14062,-0.83594 -0.76563,-0.84375 -0.76563,-2.46875 v -5.66406 h 1.46875 v 4.96875 q 0,0.66406 0.0625,1.14063 0.0625,0.46875 0.26563,0.80468 0.21094,0.34375 0.54687,0.5 0.33594,0.15625 0.97657,0.15625 0.57031,0 1.24218,-0.29687 0.67969,-0.29688 1.26563,-0.75781 v -6.51563 h 1.46875 z m 16.1075,0 h -1.46875 v -4.96875 q 0,-0.60156 -0.0703,-1.125 -0.0703,-0.53125 -0.25781,-0.82812 -0.19531,-0.32813 -0.5625,-0.48438 -0.36719,-0.16406 -0.95312,-0.16406 -0.60157,0 -1.25782,0.29688 -0.65625,0.29687 -1.25781,0.75781 v 6.51562 h -1.46875 v -8.72656 h 1.46875 v 0.96875 q 0.6875,-0.57031 1.42188,-0.89062 0.73437,-0.32032 1.50781,-0.32032 1.41406,0 2.15625,0.85157 0.74219,0.85156 0.74219,2.45312 z m 16.05282,-4.21093 h -6.42969 q 0,0.80468 0.24219,1.40625 0.24219,0.59375 0.66406,0.97656 0.40625,0.375 0.96094,0.5625 0.5625,0.1875 1.23438,0.1875 0.89062,0 1.78906,-0.35156 0.90625,-0.35938 1.28906,-0.70313 h 0.0781 v 1.60156 q -0.74219,0.3125 -1.51563,0.52344 -0.77344,0.21094 -1.625,0.21094 -2.17187,0 -3.39062,-1.17188 -1.21875,-1.17968 -1.21875,-3.34375 0,-2.14062 1.16406,-3.39843 1.17187,-1.25782 3.07812,-1.25782 1.76563,0 2.71875,1.03125 0.96094,1.03125 0.96094,2.92969 z m -1.42969,-1.125 q -0.008,-1.15625 -0.58593,-1.78907 -0.57032,-0.63281 -1.74219,-0.63281 -1.17969,0 -1.88281,0.69531 -0.69532,0.69532 -0.78907,1.72657 z"
         id="text8-2"
         transform="matrix(1.0390091,0,0,0.99999997,12.673838,-42.941333)"
         aria-label="...there is no spune" />
    </g>
    <g
       id="g1"
       transform="translate(21.278319,14.019685)">
      <path
         id="path8"
         style="fill:#ffffff;fill-opacity:1;stroke-width:0.264581"
         d="m 1.1542971,140.83594 c -2.1743511,0 -4.2261107,0.44217 -6.1542969,1.32422 -1.907673,0.86152 -3.631473,1.93816 -5.1699222,3.23046 v -3.5996 h -5.783203 v 47.04492 h 5.783203 v -14.40039 c 1.4974162,0.82051 2.9645079,1.42667 4.400391,1.8164 1.4564028,0.38974 3.0767276,0.58399 4.86132812,0.58399 2.05127188,0 3.99077938,-0.40996 5.81640628,-1.23047 1.8461403,-0.84101 3.4449912,-2.02112 4.7988281,-3.53906 1.4564025,-1.59998 2.5847715,-3.5483 3.3847655,-5.84571 0.799993,-2.31794 1.201172,-4.87239 1.201172,-7.66211 0,-5.55893 -1.160582,-9.89769 -3.478516,-13.01562 -2.2974227,-3.13844 -5.5166055,-4.70703 -9.6601559,-4.70703 z m 126.6132829,0 c -2.03076,0 -4.01126,0.4207 -5.93945,1.26172 -1.9282,0.84102 -3.79449,2.0104 -5.59961,3.50781 v -3.81445 h -5.78516 v 34.36914 h 5.78516 v -25.66211 c 1.57948,-1.21025 3.23201,-2.20489 4.95507,-2.98438 1.72307,-0.77948 3.37366,-1.16992 4.95313,-1.16992 1.53845,0 2.78981,0.21571 3.75391,0.64648 0.96409,0.41025 1.70202,1.04668 2.21484,1.90821 0.4923,0.77949 0.831,1.86686 1.01562,3.26172 0.18462,1.37434 0.27735,2.8502 0.27735,4.42968 v 19.57032 h 5.78515 v -22.3086 c 0,-4.20511 -0.97512,-7.42623 -2.92382,-9.66211 -1.9487,-2.23588 -4.7794,-3.35351 -8.49219,-3.35351 z m 60.46094,0 c -5.00509,0 -9.04615,1.65254 -12.12305,4.95508 -3.05639,3.30254 -4.58399,7.76234 -4.58399,13.38281 0,5.68201 1.59885,10.07251 4.79883,13.16992 3.19997,3.07691 7.65295,4.61523 13.35547,4.61523 2.23589,0 4.36769,-0.27623 6.39844,-0.83007 2.03076,-0.55384 4.022,-1.24199 5.9707,-2.0625 v -6.30664 h -0.30859 c -1.00513,0.90254 -2.6967,1.82594 -5.07617,2.76953 -2.35895,0.92307 -4.70843,1.38476 -7.04688,1.38476 -1.76409,0 -3.38442,-0.24792 -4.86133,-0.74023 -1.45641,-0.49231 -2.71848,-1.23025 -3.78515,-2.21485 -1.10768,-1.00514 -1.97934,-2.28674 -2.61524,-3.8457 -0.63589,-1.57946 -0.95312,-3.42624 -0.95312,-5.53906 h 25.32226 v -3.13867 c 0,-4.98458 -1.26209,-8.82944 -3.78515,-11.53711 -2.50255,-2.70768 -6.07116,-4.0625 -10.70703,-4.0625 z m -248.919926,0.12304 c -2.194858,0 -4.186103,0.28698 -5.970703,0.86133 -1.764094,0.55384 -3.220429,1.31324 -4.369141,2.27735 -1.189724,0.9846 -2.080906,2.10225 -2.675781,3.35351 -0.57435,1.25128 -0.861328,2.58463 -0.861328,4 0,2.25641 0.625682,4.1637 1.876953,5.72266 1.271784,1.53845 3.414323,2.70781 6.429687,3.50781 1.087172,0.28717 2.286806,0.55462 3.59961,0.80078 1.333331,0.24615 2.409962,0.46187 3.230469,0.64649 2.215371,0.4923 3.714659,1.08772 4.49414,1.78515 0.779474,0.69743 1.167969,1.72233 1.167969,3.07617 0,1.76409 -0.718414,3.05646 -2.154297,3.87696 -1.43589,0.82051 -3.425181,1.23047 -5.96875,1.23047 -2.051272,0 -4.193809,-0.39923 -6.429687,-1.19922 -2.235884,-0.82051 -4.268129,-1.91862 -6.09375,-3.29297 h -0.306641 v 6.49219 c 1.43589,0.71793 3.209461,1.38461 5.322266,2 2.133318,0.59486 4.472051,0.89257 7.015625,0.89257 4.492275,0 8.030646,-1.00537 10.615234,-3.01562 2.605115,-2.01024 3.908203,-4.58424 3.908203,-7.72266 0,-2.50256 -0.729145,-4.51331 -2.185547,-6.03125 -1.456397,-1.49742 -3.527682,-2.55453 -6.214844,-3.16992 -0.882039,-0.20512 -1.988934,-0.42962 -3.322265,-0.67578 -1.312804,-0.24615 -2.503648,-0.49212 -3.570313,-0.73828 -1.928186,-0.45127 -3.322059,-1.03597 -4.183593,-1.75391 -0.882047,-0.71794 -1.324219,-1.78579 -1.324219,-3.20117 0,-1.59998 0.729143,-2.79959 2.185547,-3.59961 1.456395,-0.82049 3.240711,-1.23047 5.353515,-1.23047 2.030753,0 4.102032,0.3797 6.214844,1.13867 2.112798,0.73846 3.907857,1.65112 5.384766,2.73829 h 0.308593 v -6.18555 c -1.394863,-0.71795 -3.148921,-1.32214 -5.261718,-1.81445 -2.092299,-0.5128 -4.163578,-0.76954 -6.214844,-0.76954 z m 107.382812,0.83204 v 22.30664 c 0,4.26663 1.005382,7.50729 3.015625,9.72265 2.010243,2.19486 4.82141,3.29297 8.431641,3.29297 2.153831,0 4.121648,-0.40998 5.90625,-1.23047 1.784603,-0.82052 3.650906,-2.0006 5.599609,-3.53906 v 3.81641 h 5.785157 v -34.36914 h -5.785157 v 25.66015 c -1.53845,1.21026 -3.199771,2.20489 -4.984375,2.98438 -1.764089,0.77947 -3.393199,1.16992 -4.890625,1.16992 -1.682038,0 -2.963658,-0.20499 -3.845703,-0.61524 -0.882041,-0.41025 -1.600445,-1.0662 -2.154297,-1.96875 -0.533323,-0.88205 -0.88277,-1.93917 -1.046875,-3.16992 -0.164104,-1.25128 -0.246093,-2.74862 -0.246093,-4.49219 v -19.56835 z m 141.230474,3.81445 c 3.0769,0 5.36389,0.83065 6.86132,2.49219 1.5179,1.66152 2.2861,4.01101 2.30664,7.04687 h -19.6914 c 0.24615,-2.70766 1.28179,-4.97515 3.10742,-6.80078 1.84614,-1.82562 4.31861,-2.73828 7.41602,-2.73828 z m -188.24414538,0.73828 c 2.93331228,0 5.10611458,1.02489 6.52148438,3.07617 1.4153767,2.05125 2.1230469,5.14941 2.1230469,9.29297 0,4.26664 -0.9019107,7.48778 -2.7070313,9.66211 -1.8051137,2.17436 -4.3185724,3.26172 -7.5390625,3.26172 -1.4974227,0 -2.8395587,-0.13372 -4.0292969,-0.40039 -1.1692249,-0.26667 -2.5757953,-0.76935 -4.2167972,-1.50781 v -19.47657 c 1.5384492,-1.16922 3.1499969,-2.11408 4.8320316,-2.83203 1.6820412,-0.71795 3.354097,-1.07617 5.01562502,-1.07617 z" />
      <path
         id="rect8"
         style="fill:#ffffff;fill-opacity:1;stroke-width:2.01005"
         d="M 23.999236,0 C 10.703336,0 -7.6368945e-4,10.704095 -7.6368945e-4,24 v 80 c 0,13.2959 10.70409968945,24 23.99999968945,24 h 80.000004 c 13.29591,0 24,-10.7041 24,-24 V 24 c 0,-13.295905 -10.70409,-24 -24,-24 z m 40,15 a 22.75,30.5 0 0 1 22.75,30.5 22.75,30.5 0 0 1 -18.923819,30.009766 v 0.472656 c 0.11625,2.495882 0.29745,4.985564 0.54882,7.466797 1.30936,13.174998 4.55679,26.131261 9.85743,38.126951 L 76.053927,122.5 h -7.13281 c -4.714471,-12.33219 -7.486931,-25.320167 -8.412111,-38.384766 -0.18746,-2.710282 -0.30105,-5.422321 -0.3418,-8.132812 v -0.47461 A 22.75,30.5 0 0 1 41.249236,45.5 22.75,30.5 0 0 1 63.999236,15 Z" />
      <path
         style="font-size:16px;-inkscape-font-specification:sans-serif;letter-spacing:5.92px;white-space:pre;fill:#ffffff"
         d="m -82.248047,251.68322 h -1.867187 v -2.22656 h 1.867187 z m 11.740313,0 h -1.867188 v -2.22656 h 1.867188 z m 11.740312,0 h -1.867187 v -2.22656 h 1.867187 z m 13.873127,-0.0781 q -0.414062,0.10937 -0.90625,0.17969 -0.484375,0.0703 -0.867187,0.0703 -1.335938,0 -2.03125,-0.71875 -0.695313,-0.71875 -0.695313,-2.30469 v -4.64062 h -0.992187 v -1.23438 h 0.992187 v -2.50781 h 1.46875 v 2.50781 h 3.03125 v 1.23438 h -3.03125 v 3.97656 q 0,0.6875 0.03125,1.07812 0.03125,0.38282 0.21875,0.71875 0.171875,0.3125 0.46875,0.46094 0.304688,0.14063 0.921875,0.14063 0.359375,0 0.75,-0.10157 0.390625,-0.10937 0.5625,-0.17968 h 0.07813 z m 14.990311,0.0781 h -1.46875 v -4.96875 q 0,-0.60156 -0.07031,-1.125 -0.07031,-0.53125 -0.257812,-0.82812 -0.195313,-0.32813 -0.5625,-0.48438 -0.367188,-0.16406 -0.953125,-0.16406 -0.601563,0 -1.257813,0.29688 -0.65625,0.29687 -1.257812,0.75781 v 6.51562 h -1.46875 v -12.15625 h 1.46875 v 4.39844 q 0.6875,-0.57031 1.421875,-0.89062 0.734375,-0.32032 1.507812,-0.32032 1.414063,0 2.15625,0.85157 0.742188,0.85156 0.742188,2.45312 z m 16.052811,-4.21093 h -6.429688 q 0,0.80468 0.242188,1.40625 0.242187,0.59375 0.664062,0.97656 0.40625,0.375 0.960938,0.5625 0.5625,0.1875 1.234375,0.1875 0.890625,0 1.789062,-0.35156 0.90625,-0.35938 1.289063,-0.70313 h 0.07813 v 1.60156 q -0.742188,0.3125 -1.515625,0.52344 -0.773438,0.21094 -1.625,0.21094 -2.171875,0 -3.390625,-1.17188 -1.21875,-1.17968 -1.21875,-3.34375 0,-2.14062 1.164062,-3.39843 1.171875,-1.25782 3.078125,-1.25782 1.765625,0 2.71875,1.03125 0.960938,1.03125 0.960938,2.92969 z m -1.429688,-1.125 q -0.0078,-1.15625 -0.585937,-1.78907 -0.570313,-0.63281 -1.742188,-0.63281 -1.179687,0 -1.882812,0.69531 -0.695313,0.69532 -0.789063,1.72657 z m 15.0215684,-1.78907 h -0.078125 q -0.328125,-0.0781 -0.640625,-0.10937 -0.3046875,-0.0391 -0.7265625,-0.0391 -0.6796875,0 -1.3125,0.30468 -0.6328125,0.29688 -1.21875,0.77344 v 6.19531 h -1.46875 v -8.72656 h 1.46875 v 1.28906 q 0.875,-0.70312 1.5390625,-0.99218 0.671875,-0.29688 1.3671875,-0.29688 0.3828125,0 0.5546875,0.0234 0.171875,0.0156 0.515625,0.0703 z m 14.6074986,2.91407 H 7.9185181 q 0,0.80468 0.2421875,1.40625 0.2421875,0.59375 0.6640625,0.97656 0.40625,0.375 0.9609375,0.5625 0.5625004,0.1875 1.2343754,0.1875 0.890625,0 1.789062,-0.35156 0.90625,-0.35938 1.289063,-0.70313 h 0.07813 v 1.60156 q -0.742188,0.3125 -1.515625,0.52344 -0.773438,0.21094 -1.625,0.21094 -2.1718754,0 -3.3906254,-1.17188 -1.21875,-1.17968 -1.21875,-3.34375 0,-2.14062 1.1640625,-3.39843 1.171875,-1.25782 3.0781249,-1.25782 1.765625,0 2.71875,1.03125 0.960938,1.03125 0.960938,2.92969 z m -1.429688,-1.125 q -0.0078,-1.15625 -0.585937,-1.78907 -0.570313,-0.63281 -1.742188,-0.63281 -1.1796874,0 -1.8828124,0.69531 -0.6953125,0.69532 -0.7890625,1.72657 z m 22.699371,-4.85157 h -1.65625 v -1.52343 h 1.65625 z m -0.09375,10.1875 h -1.46875 v -8.72656 h 1.46875 z m 15.060624,-2.51562 q 0,1.19531 -0.992188,1.96094 -0.984375,0.76562 -2.695312,0.76562 -0.96875,0 -1.78125,-0.22656 -0.804688,-0.23438 -1.351563,-0.50781 v -1.64844 h 0.07813 q 0.695313,0.52344 1.546875,0.83594 0.851563,0.30468 1.632813,0.30468 0.96875,0 1.515625,-0.3125 0.546875,-0.3125 0.546875,-0.98437 0,-0.51563 -0.296875,-0.78125 -0.296875,-0.26563 -1.140625,-0.45313 -0.3125,-0.0703 -0.820313,-0.16406 -0.5,-0.0937 -0.914062,-0.20312 -1.148438,-0.30469 -1.632813,-0.89063 -0.476562,-0.59375 -0.476562,-1.45312 0,-0.53907 0.21875,-1.01563 0.226562,-0.47656 0.679687,-0.85156 0.4375,-0.36719 1.109375,-0.57813 0.679688,-0.21875 1.515625,-0.21875 0.78125,0 1.578125,0.19532 0.804688,0.1875 1.335938,0.46093 v 1.57032 h -0.07813 q -0.5625,-0.41407 -1.367188,-0.69532 -0.804687,-0.28906 -1.578125,-0.28906 -0.804687,0 -1.359375,0.3125 -0.554687,0.30469 -0.554687,0.91406 0,0.53907 0.335937,0.8125 0.328125,0.27344 1.0625,0.44532 0.40625,0.0937 0.90625,0.1875 0.507813,0.0937 0.84375,0.17187 1.023438,0.23438 1.578125,0.80469 0.554688,0.57812 0.554688,1.53125 z m 26.863449,2.51562 h -1.46875 v -4.96875 q 0,-0.60156 -0.07031,-1.125 -0.07031,-0.53125 -0.257812,-0.82812 -0.195313,-0.32813 -0.5625,-0.48438 -0.367188,-0.16406 -0.953125,-0.16406 -0.601563,0 -1.257813,0.29688 -0.65625,0.29687 -1.257812,0.75781 v 6.51562 h -1.46875 v -8.72656 h 1.46875 v 0.96875 q 0.6875,-0.57031 1.421875,-0.89062 0.734375,-0.32032 1.507812,-0.32032 1.414063,0 2.15625,0.85157 0.742188,0.85156 0.742188,2.45312 z m 16.185623,-4.35937 q 0,2.13281 -1.09375,3.36719 -1.09375,1.23437 -2.929688,1.23437 -1.851562,0 -2.945312,-1.23437 -1.085938,-1.23438 -1.085938,-3.36719 0,-2.13281 1.085938,-3.36719 1.09375,-1.24219 2.945312,-1.24219 1.835938,0 2.929688,1.24219 1.09375,1.23438 1.09375,3.36719 z m -1.515625,0 q 0,-1.69531 -0.664063,-2.51563 -0.664062,-0.82812 -1.84375,-0.82812 -1.195312,0 -1.859375,0.82812 -0.65625,0.82032 -0.65625,2.51563 0,1.64062 0.664063,2.49219 0.664062,0.84375 1.851562,0.84375 1.171875,0 1.835938,-0.83594 0.671875,-0.84375 0.671875,-2.5 z m 27.48843,1.84375 q 0,1.19531 -0.99218,1.96094 -0.98438,0.76562 -2.69532,0.76562 -0.96875,0 -1.78125,-0.22656 -0.80468,-0.23438 -1.35156,-0.50781 v -1.64844 h 0.0781 q 0.69531,0.52344 1.54687,0.83594 0.85156,0.30468 1.63281,0.30468 0.96875,0 1.51563,-0.3125 0.54687,-0.3125 0.54687,-0.98437 0,-0.51563 -0.29687,-0.78125 -0.29688,-0.26563 -1.14063,-0.45313 -0.3125,-0.0703 -0.82031,-0.16406 -0.5,-0.0937 -0.91406,-0.20312 -1.14844,-0.30469 -1.63281,-0.89063 -0.47657,-0.59375 -0.47657,-1.45312 0,-0.53907 0.21875,-1.01563 0.22657,-0.47656 0.67969,-0.85156 0.4375,-0.36719 1.10938,-0.57813 0.67968,-0.21875 1.51562,-0.21875 0.78125,0 1.57813,0.19532 0.80468,0.1875 1.33593,0.46093 v 1.57032 h -0.0781 q -0.5625,-0.41407 -1.36719,-0.69532 -0.80469,-0.28906 -1.57812,-0.28906 -0.80469,0 -1.35938,0.3125 -0.55469,0.30469 -0.55469,0.91406 0,0.53907 0.33594,0.8125 0.32813,0.27344 1.0625,0.44532 0.40625,0.0937 0.90625,0.1875 0.50781,0.0937 0.84375,0.17187 1.02344,0.23438 1.57813,0.80469 0.55468,0.57812 0.55468,1.53125 z m 15.70125,-1.95313 q 0,1.0625 -0.30469,1.94532 -0.30468,0.875 -0.85937,1.48437 -0.51563,0.57813 -1.21875,0.89844 -0.69531,0.3125 -1.47656,0.3125 -0.67969,0 -1.23438,-0.14844 -0.54687,-0.14844 -1.11719,-0.46094 v 3.65625 h -1.46875 v -11.94531 h 1.46875 v 0.91406 q 0.58594,-0.49218 1.3125,-0.82031 0.73438,-0.33594 1.5625,-0.33594 1.57813,0 2.45313,1.19532 0.88281,1.1875 0.88281,3.30468 z m -1.51562,0.0391 q 0,-1.57813 -0.53907,-2.35938 -0.53906,-0.78125 -1.65625,-0.78125 -0.63281,0 -1.27343,0.27344 -0.64063,0.27344 -1.22657,0.71875 v 4.94531 q 0.625,0.28125 1.07032,0.38281 0.45312,0.10157 1.02343,0.10157 1.22657,0 1.91407,-0.82813 0.6875,-0.82812 0.6875,-2.45312 z m 16.95906,4.42968 h -1.46875 v -0.96875 q -0.74219,0.58594 -1.42188,0.89844 -0.67968,0.3125 -1.5,0.3125 -1.375,0 -2.14062,-0.83594 -0.76563,-0.84375 -0.76563,-2.46875 v -5.66406 h 1.46875 v 4.96875 q 0,0.66406 0.0625,1.14063 0.0625,0.46875 0.26563,0.80468 0.21094,0.34375 0.54687,0.5 0.33594,0.15625 0.97657,0.15625 0.57031,0 1.24218,-0.29687 0.67969,-0.29688 1.26563,-0.75781 v -6.51563 h 1.46875 z m 16.1075,0 h -1.46875 v -4.96875 q 0,-0.60156 -0.0703,-1.125 -0.0703,-0.53125 -0.25781,-0.82812 -0.19531,-0.32813 -0.5625,-0.48438 -0.36719,-0.16406 -0.95312,-0.16406 -0.60157,0 -1.25782,0.29688 -0.65625,0.29687 -1.25781,0.75781 v 6.51562 h -1.46875 v -8.72656 h 1.46875 v 0.96875 q 0.6875,-0.57031 1.42188,-0.89062 0.73437,-0.32032 1.50781,-0.32032 1.41406,0 2.15625,0.85157 0.74219,0.85156 0.74219,2.45312 z m 16.05282,-4.21093 h -6.42969 q 0,0.80468 0.24219,1.40625 0.24219,0.59375 0.66406,0.97656 0.40625,0.375 0.96094,0.5625 0.5625,0.1875 1.23438,0.1875 0.89062,0 1.78906,-0.35156 0.90625,-0.35938 1.28906,-0.70313 h 0.0781 v 1.60156 q -0.74219,0.3125 -1.51563,0.52344 -0.77344,0.21094 -1.625,0.21094 -2.17187,0 -3.39062,-1.17188 -1.21875,-1.17968 -1.21875,-3.34375 0,-2.14062 1.16406,-3.39843 1.17187,-1.25782 3.07812,-1.25782 1.76563,0 2.71875,1.03125 0.96094,1.03125 0.96094,2.92969 z m -1.42969,-1.125 q -0.008,-1.15625 -0.58593,-1.78907 -0.57032,-0.63281 -1.74219,-0.63281 -1.17969,0 -1.88281,0.69531 -0.69532,0.69532 -0.78907,1.72657 z"
         id="text8"
         transform="matrix(1.0390091,0,0,0.99999997,12.673838,-42.941333)"
         aria-label="...there is no spune" />
    </g>
  </g>
</svg>
