<?xml version="1.0" encoding="UTF-8" standalone="no"?>
<!-- Created with Inkscape (http://www.inkscape.org/) -->

<svg
   width="277.44379"
   height="211.96063"
   viewBox="0 0 277.44378 211.96063"
   version="1.1"
   id="svg1"
   inkscape:version="1.4 (e7c3feb1, 2024-10-09)"
   sodipodi:docname="Logo.svg"
   inkscape:export-filename="drawing.svg.2024_12_23_12_09_47.0.png"
   inkscape:export-xdpi="692.0321"
   inkscape:export-ydpi="692.0321"
   xmlns:inkscape="http://www.inkscape.org/namespaces/inkscape"
   xmlns:sodipodi="http://sodipodi.sourceforge.net/DTD/sodipodi-0.dtd"
   xmlns="http://www.w3.org/2000/svg"
   xmlns:svg="http://www.w3.org/2000/svg">
  <sodipodi:namedview
     id="namedview1"
     pagecolor="#ffffff"
     bordercolor="#000000"
     borderopacity="0.25"
     inkscape:showpageshadow="2"
     inkscape:pageopacity="0.0"
     inkscape:pagecheckerboard="0"
     inkscape:deskcolor="#d1d1d1"
     inkscape:document-units="px"
     inkscape:zoom="1.51"
     inkscape:cx="-23.178808"
     inkscape:cy="64.238411"
     inkscape:window-width="1728"
     inkscape:window-height="1051"
     inkscape:window-x="0"
     inkscape:window-y="38"
     inkscape:window-maximized="1"
     inkscape:current-layer="layer1" />
  <defs
     id="defs1">
    <rect
       x="-86.092715"
       y="237.08609"
       width="367.54967"
       height="53.642384"
       id="rect9" />
    <rect
       x="-29.139072"
       y="196.68874"
       width="429.13907"
       height="119.86755"
       id="rect4" />
    <rect
       x="-158.27815"
       y="198.01324"
       width="502.64902"
       height="124.50331"
       id="rect3" />
    <rect
       x="-190.06622"
       y="141.0596"
       width="543.70862"
       height="164.2384"
       id="rect2" />
    <rect
       x="-29.139072"
       y="196.68874"
       width="429.13907"
       height="119.86755"
       id="rect4-0" />
  </defs>
  <g
     inkscape:label="Layer 1"
     inkscape:groupmode="layer"
     id="layer1"
     transform="translate(74.722656)">
    <path
       id="path8"
       style="fill:#00000c;fill-opacity:1;stroke-width:0.264581"
       d="M 1.1542971 140.83594 C -1.020054 140.83594 -3.0718136 141.27811 -4.9999998 142.16016 C -6.9076728 143.02168 -8.6314728 144.09832 -10.169922 145.39062 L -10.169922 141.79102 L -15.953125 141.79102 L -15.953125 188.83594 L -10.169922 188.83594 L -10.169922 174.43555 C -8.6725058 175.25606 -7.2054141 175.86222 -5.769531 176.25195 C -4.3131282 176.64169 -2.6928034 176.83594 -0.90820288 176.83594 C 1.143069 176.83594 3.0825765 176.42598 4.9082034 175.60547 C 6.7543437 174.76446 8.3531946 173.58435 9.7070315 172.06641 C 11.163434 170.46643 12.291803 168.51811 13.091797 166.2207 C 13.89179 163.90276 14.292969 161.34831 14.292969 158.55859 C 14.292969 152.99966 13.132387 148.6609 10.814453 145.54297 C 8.5170303 142.40453 5.2978475 140.83594 1.1542971 140.83594 z M 127.76758 140.83594 C 125.73682 140.83594 123.75632 141.25664 121.82813 142.09766 C 119.89993 142.93868 118.03364 144.10806 116.22852 145.60547 L 116.22852 141.79102 L 110.44336 141.79102 L 110.44336 176.16016 L 116.22852 176.16016 L 116.22852 150.49805 C 117.808 149.2878 119.46053 148.29316 121.18359 147.51367 C 122.90666 146.73419 124.55725 146.34375 126.13672 146.34375 C 127.67517 146.34375 128.92653 146.55946 129.89063 146.99023 C 130.85472 147.40048 131.59265 148.03691 132.10547 148.89844 C 132.59777 149.67793 132.93647 150.7653 133.12109 152.16016 C 133.30571 153.5345 133.39844 155.01036 133.39844 156.58984 L 133.39844 176.16016 L 139.18359 176.16016 L 139.18359 153.85156 C 139.18359 149.64645 138.20847 146.42533 136.25977 144.18945 C 134.31107 141.95357 131.48037 140.83594 127.76758 140.83594 z M 188.22852 140.83594 C 183.22343 140.83594 179.18237 142.48848 176.10547 145.79102 C 173.04908 149.09356 171.52148 153.55336 171.52148 159.17383 C 171.52148 164.85584 173.12033 169.24634 176.32031 172.34375 C 179.52028 175.42066 183.97326 176.95898 189.67578 176.95898 C 191.91167 176.95898 194.04347 176.68275 196.07422 176.12891 C 198.10498 175.57507 200.09622 174.88692 202.04492 174.06641 L 202.04492 167.75977 L 201.73633 167.75977 C 200.7312 168.66231 199.03963 169.58571 196.66016 170.5293 C 194.30121 171.45237 191.95173 171.91406 189.61328 171.91406 C 187.84919 171.91406 186.22886 171.66614 184.75195 171.17383 C 183.29554 170.68152 182.03347 169.94358 180.9668 168.95898 C 179.85912 167.95384 178.98746 166.67224 178.35156 165.11328 C 177.71567 163.53382 177.39844 161.68704 177.39844 159.57422 L 202.7207 159.57422 L 202.7207 156.43555 C 202.7207 151.45097 201.45861 147.60611 198.93555 144.89844 C 196.433 142.19076 192.86439 140.83594 188.22852 140.83594 z M -60.691406 140.95898 C -62.886264 140.95898 -64.877509 141.24596 -66.662109 141.82031 C -68.426203 142.37415 -69.882538 143.13355 -71.03125 144.09766 C -72.220974 145.08226 -73.112156 146.19991 -73.707031 147.45117 C -74.281381 148.70245 -74.568359 150.0358 -74.568359 151.45117 C -74.568359 153.70758 -73.942677 155.61487 -72.691406 157.17383 C -71.419622 158.71228 -69.277083 159.88164 -66.261719 160.68164 C -65.174547 160.96881 -63.974913 161.23626 -62.662109 161.48242 C -61.328778 161.72857 -60.252147 161.94429 -59.43164 162.12891 C -57.216269 162.62121 -55.716981 163.21663 -54.9375 163.91406 C -54.158026 164.61149 -53.769531 165.63639 -53.769531 166.99023 C -53.769531 168.75432 -54.487945 170.04669 -55.923828 170.86719 C -57.359718 171.6877 -59.349009 172.09766 -61.892578 172.09766 C -63.94385 172.09766 -66.086387 171.69843 -68.322265 170.89844 C -70.558149 170.07793 -72.590394 168.97982 -74.416015 167.60547 L -74.722656 167.60547 L -74.722656 174.09766 C -73.286766 174.81559 -71.513195 175.48227 -69.40039 176.09766 C -67.267072 176.69252 -64.928339 176.99023 -62.384765 176.99023 C -57.89249 176.99023 -54.354119 175.98486 -51.769531 173.97461 C -49.164416 171.96437 -47.861328 169.39037 -47.861328 166.25195 C -47.861328 163.74939 -48.590473 161.73864 -50.046875 160.2207 C -51.503272 158.72328 -53.574557 157.66617 -56.261719 157.05078 C -57.143758 156.84566 -58.250653 156.62116 -59.583984 156.375 C -60.896788 156.12885 -62.087632 155.88288 -63.154297 155.63672 C -65.082483 155.18545 -66.476356 154.60075 -67.33789 153.88281 C -68.219937 153.16487 -68.662109 152.09702 -68.662109 150.68164 C -68.662109 149.08166 -67.932966 147.88205 -66.476562 147.08203 C -65.020167 146.26154 -63.235851 145.85156 -61.123047 145.85156 C -59.092294 145.85156 -57.021015 146.23126 -54.908203 146.99023 C -52.795405 147.72869 -51.000346 148.64135 -49.523437 149.72852 L -49.214844 149.72852 L -49.214844 143.54297 C -50.609707 142.82502 -52.363765 142.22083 -54.476562 141.72852 C -56.568861 141.21572 -58.64014 140.95898 -60.691406 140.95898 z M 46.691406 141.79102 L 46.691406 164.09766 C 46.691406 168.36429 47.696788 171.60495 49.707031 173.82031 C 51.717274 176.01517 54.528441 177.11328 58.138672 177.11328 C 60.292503 177.11328 62.26032 176.7033 64.044922 175.88281 C 65.829525 175.06229 67.695828 173.88221 69.644531 172.34375 L 69.644531 176.16016 L 75.429688 176.16016 L 75.429688 141.79102 L 69.644531 141.79102 L 69.644531 167.45117 C 68.106081 168.66143 66.44476 169.65606 64.660156 170.43555 C 62.896067 171.21502 61.266957 171.60547 59.769531 171.60547 C 58.087493 171.60547 56.805873 171.40048 55.923828 170.99023 C 55.041787 170.57998 54.323383 169.92403 53.769531 169.02148 C 53.236208 168.13943 52.886761 167.08231 52.722656 165.85156 C 52.558552 164.60028 52.476563 163.10294 52.476563 161.35937 L 52.476563 141.79102 L 46.691406 141.79102 z M 187.92188 145.60547 C 190.99878 145.60547 193.28577 146.43612 194.7832 148.09766 C 196.3011 149.75918 197.0693 152.10867 197.08984 155.14453 L 177.39844 155.14453 C 177.64459 152.43687 178.68023 150.16938 180.50586 148.34375 C 182.352 146.51813 184.82447 145.60547 187.92188 145.60547 z M -0.32226538 146.34375 C 2.6110469 146.34375 4.7838492 147.36864 6.199219 149.41992 C 7.6145957 151.47117 8.3222659 154.56933 8.3222659 158.71289 C 8.3222659 162.97953 7.4203552 166.20067 5.6152346 168.375 C 3.8101209 170.54936 1.2966622 171.63672 -1.9238279 171.63672 C -3.4212506 171.63672 -4.7633866 171.503 -5.9531248 171.23633 C -7.1223497 170.96966 -8.5289201 170.46698 -10.169922 169.72852 L -10.169922 150.25195 C -8.6314728 149.08273 -7.0199251 148.13787 -5.3378904 147.41992 C -3.6558492 146.70197 -1.9837934 146.34375 -0.32226538 146.34375 z " />
    <text
       xml:space="preserve"
       transform="translate(-74.722656)"
       id="text3"
       style="font-style:normal;font-variant:normal;font-weight:normal;font-stretch:normal;font-size:42.6667px;font-family:Kokonor;-inkscape-font-specification:Kokonor;text-align:start;letter-spacing:16px;writing-mode:lr-tb;direction:ltr;white-space:pre;shape-inside:url(#rect4);display:inline;fill:#000000;fill-opacity:1" />
    <path
       id="rect8"
       style="fill:#000000;fill-opacity:1;stroke-width:2.01005"
       d="M 23.999236,0 C 10.703336,0 -7.6368945e-4,10.704095 -7.6368945e-4,24 v 80 c 0,13.2959 10.70409968945,24 23.99999968945,24 h 80.000004 c 13.29591,0 24,-10.7041 24,-24 V 24 c 0,-13.295905 -10.70409,-24 -24,-24 z m 40,15 a 22.75,30.5 0 0 1 22.75,30.5 22.75,30.5 0 0 1 -18.923819,30.009766 v 0.472656 c 0.11625,2.495882 0.29745,4.985564 0.54882,7.466797 1.30936,13.174998 4.55679,26.131261 9.85743,38.126951 L 76.053927,122.5 h -7.13281 c -4.714471,-12.33219 -7.486931,-25.320167 -8.412111,-38.384766 -0.18746,-2.710282 -0.30105,-5.422321 -0.3418,-8.132812 v -0.47461 A 22.75,30.5 0 0 1 41.249236,45.5 22.75,30.5 0 0 1 63.999236,15 Z" />
    <text
       xml:space="preserve"
       transform="translate(-322.40478,-52.318342)"
       id="text3-1"
       style="font-style:normal;font-variant:normal;font-weight:normal;font-stretch:normal;font-size:42.6667px;font-family:Kokonor;-inkscape-font-specification:Kokonor;text-align:start;letter-spacing:16px;writing-mode:lr-tb;direction:ltr;white-space:pre;shape-inside:url(#rect4-0);display:inline;fill:#000000;fill-opacity:1" />
    <path
       style="font-size:16px;-inkscape-font-specification:sans-serif;letter-spacing:5.92px;white-space:pre"
       d="m -82.248047,251.68322 h -1.867187 v -2.22656 h 1.867187 z m 11.740313,0 h -1.867188 v -2.22656 h 1.867188 z m 11.740312,0 h -1.867187 v -2.22656 h 1.867187 z m 13.873127,-0.0781 q -0.414062,0.10937 -0.90625,0.17969 -0.484375,0.0703 -0.867187,0.0703 -1.335938,0 -2.03125,-0.71875 -0.695313,-0.71875 -0.695313,-2.30469 v -4.64062 h -0.992187 v -1.23438 h 0.992187 v -2.50781 h 1.46875 v 2.50781 h 3.03125 v 1.23438 h -3.03125 v 3.97656 q 0,0.6875 0.03125,1.07812 0.03125,0.38282 0.21875,0.71875 0.171875,0.3125 0.46875,0.46094 0.304688,0.14063 0.921875,0.14063 0.359375,0 0.75,-0.10157 0.390625,-0.10937 0.5625,-0.17968 h 0.07813 z m 14.990311,0.0781 h -1.46875 v -4.96875 q 0,-0.60156 -0.07031,-1.125 -0.07031,-0.53125 -0.257812,-0.82812 -0.195313,-0.32813 -0.5625,-0.48438 -0.367188,-0.16406 -0.953125,-0.16406 -0.601563,0 -1.257813,0.29688 -0.65625,0.29687 -1.257812,0.75781 v 6.51562 h -1.46875 v -12.15625 h 1.46875 v 4.39844 q 0.6875,-0.57031 1.421875,-0.89062 0.734375,-0.32032 1.507812,-0.32032 1.414063,0 2.15625,0.85157 0.742188,0.85156 0.742188,2.45312 z m 16.052811,-4.21093 h -6.429688 q 0,0.80468 0.242188,1.40625 0.242187,0.59375 0.664062,0.97656 0.40625,0.375 0.960938,0.5625 0.5625,0.1875 1.234375,0.1875 0.890625,0 1.789062,-0.35156 0.90625,-0.35938 1.289063,-0.70313 h 0.07813 v 1.60156 q -0.742188,0.3125 -1.515625,0.52344 -0.773438,0.21094 -1.625,0.21094 -2.171875,0 -3.390625,-1.17188 -1.21875,-1.17968 -1.21875,-3.34375 0,-2.14062 1.164062,-3.39843 1.171875,-1.25782 3.078125,-1.25782 1.765625,0 2.71875,1.03125 0.960938,1.03125 0.960938,2.92969 z m -1.429688,-1.125 q -0.0078,-1.15625 -0.585937,-1.78907 -0.570313,-0.63281 -1.742188,-0.63281 -1.179687,0 -1.882812,0.69531 -0.695313,0.69532 -0.789063,1.72657 z m 15.0215684,-1.78907 h -0.078125 q -0.328125,-0.0781 -0.640625,-0.10937 -0.3046875,-0.0391 -0.7265625,-0.0391 -0.6796875,0 -1.3125,0.30468 -0.6328125,0.29688 -1.21875,0.77344 v 6.19531 h -1.46875 v -8.72656 h 1.46875 v 1.28906 q 0.875,-0.70312 1.5390625,-0.99218 0.671875,-0.29688 1.3671875,-0.29688 0.3828125,0 0.5546875,0.0234 0.171875,0.0156 0.515625,0.0703 z m 14.6074986,2.91407 H 7.9185181 q 0,0.80468 0.2421875,1.40625 0.2421875,0.59375 0.6640625,0.97656 0.40625,0.375 0.9609375,0.5625 0.5625004,0.1875 1.2343754,0.1875 0.890625,0 1.789062,-0.35156 0.90625,-0.35938 1.289063,-0.70313 h 0.07813 v 1.60156 q -0.742188,0.3125 -1.515625,0.52344 -0.773438,0.21094 -1.625,0.21094 -2.1718754,0 -3.3906254,-1.17188 -1.21875,-1.17968 -1.21875,-3.34375 0,-2.14062 1.1640625,-3.39843 1.171875,-1.25782 3.0781249,-1.25782 1.765625,0 2.71875,1.03125 0.960938,1.03125 0.960938,2.92969 z m -1.429688,-1.125 q -0.0078,-1.15625 -0.585937,-1.78907 -0.570313,-0.63281 -1.742188,-0.63281 -1.1796874,0 -1.8828124,0.69531 -0.6953125,0.69532 -0.7890625,1.72657 z m 22.699371,-4.85157 h -1.65625 v -1.52343 h 1.65625 z m -0.09375,10.1875 h -1.46875 v -8.72656 h 1.46875 z m 15.060624,-2.51562 q 0,1.19531 -0.992188,1.96094 -0.984375,0.76562 -2.695312,0.76562 -0.96875,0 -1.78125,-0.22656 -0.804688,-0.23438 -1.351563,-0.50781 v -1.64844 h 0.07813 q 0.695313,0.52344 1.546875,0.83594 0.851563,0.30468 1.632813,0.30468 0.96875,0 1.515625,-0.3125 0.546875,-0.3125 0.546875,-0.98437 0,-0.51563 -0.296875,-0.78125 -0.296875,-0.26563 -1.140625,-0.45313 -0.3125,-0.0703 -0.820313,-0.16406 -0.5,-0.0937 -0.914062,-0.20312 -1.148438,-0.30469 -1.632813,-0.89063 -0.476562,-0.59375 -0.476562,-1.45312 0,-0.53907 0.21875,-1.01563 0.226562,-0.47656 0.679687,-0.85156 0.4375,-0.36719 1.109375,-0.57813 0.679688,-0.21875 1.515625,-0.21875 0.78125,0 1.578125,0.19532 0.804688,0.1875 1.335938,0.46093 v 1.57032 h -0.07813 q -0.5625,-0.41407 -1.367188,-0.69532 -0.804687,-0.28906 -1.578125,-0.28906 -0.804687,0 -1.359375,0.3125 -0.554687,0.30469 -0.554687,0.91406 0,0.53907 0.335937,0.8125 0.328125,0.27344 1.0625,0.44532 0.40625,0.0937 0.90625,0.1875 0.507813,0.0937 0.84375,0.17187 1.023438,0.23438 1.578125,0.80469 0.554688,0.57812 0.554688,1.53125 z m 26.863449,2.51562 h -1.46875 v -4.96875 q 0,-0.60156 -0.07031,-1.125 -0.07031,-0.53125 -0.257812,-0.82812 -0.195313,-0.32813 -0.5625,-0.48438 -0.367188,-0.16406 -0.953125,-0.16406 -0.601563,0 -1.257813,0.29688 -0.65625,0.29687 -1.257812,0.75781 v 6.51562 h -1.46875 v -8.72656 h 1.46875 v 0.96875 q 0.6875,-0.57031 1.421875,-0.89062 0.734375,-0.32032 1.507812,-0.32032 1.414063,0 2.15625,0.85157 0.742188,0.85156 0.742188,2.45312 z m 16.185623,-4.35937 q 0,2.13281 -1.09375,3.36719 -1.09375,1.23437 -2.929688,1.23437 -1.851562,0 -2.945312,-1.23437 -1.085938,-1.23438 -1.085938,-3.36719 0,-2.13281 1.085938,-3.36719 1.09375,-1.24219 2.945312,-1.24219 1.835938,0 2.929688,1.24219 1.09375,1.23438 1.09375,3.36719 z m -1.515625,0 q 0,-1.69531 -0.664063,-2.51563 -0.664062,-0.82812 -1.84375,-0.82812 -1.195312,0 -1.859375,0.82812 -0.65625,0.82032 -0.65625,2.51563 0,1.64062 0.664063,2.49219 0.664062,0.84375 1.851562,0.84375 1.171875,0 1.835938,-0.83594 0.671875,-0.84375 0.671875,-2.5 z m 27.48843,1.84375 q 0,1.19531 -0.99218,1.96094 -0.98438,0.76562 -2.69532,0.76562 -0.96875,0 -1.78125,-0.22656 -0.80468,-0.23438 -1.35156,-0.50781 v -1.64844 h 0.0781 q 0.69531,0.52344 1.54687,0.83594 0.85156,0.30468 1.63281,0.30468 0.96875,0 1.51563,-0.3125 0.54687,-0.3125 0.54687,-0.98437 0,-0.51563 -0.29687,-0.78125 -0.29688,-0.26563 -1.14063,-0.45313 -0.3125,-0.0703 -0.82031,-0.16406 -0.5,-0.0937 -0.91406,-0.20312 -1.14844,-0.30469 -1.63281,-0.89063 -0.47657,-0.59375 -0.47657,-1.45312 0,-0.53907 0.21875,-1.01563 0.22657,-0.47656 0.67969,-0.85156 0.4375,-0.36719 1.10938,-0.57813 0.67968,-0.21875 1.51562,-0.21875 0.78125,0 1.57813,0.19532 0.80468,0.1875 1.33593,0.46093 v 1.57032 h -0.0781 q -0.5625,-0.41407 -1.36719,-0.69532 -0.80469,-0.28906 -1.57812,-0.28906 -0.80469,0 -1.35938,0.3125 -0.55469,0.30469 -0.55469,0.91406 0,0.53907 0.33594,0.8125 0.32813,0.27344 1.0625,0.44532 0.40625,0.0937 0.90625,0.1875 0.50781,0.0937 0.84375,0.17187 1.02344,0.23438 1.57813,0.80469 0.55468,0.57812 0.55468,1.53125 z m 15.70125,-1.95313 q 0,1.0625 -0.30469,1.94532 -0.30468,0.875 -0.85937,1.48437 -0.51563,0.57813 -1.21875,0.89844 -0.69531,0.3125 -1.47656,0.3125 -0.67969,0 -1.23438,-0.14844 -0.54687,-0.14844 -1.11719,-0.46094 v 3.65625 h -1.46875 v -11.94531 h 1.46875 v 0.91406 q 0.58594,-0.49218 1.3125,-0.82031 0.73438,-0.33594 1.5625,-0.33594 1.57813,0 2.45313,1.19532 0.88281,1.1875 0.88281,3.30468 z m -1.51562,0.0391 q 0,-1.57813 -0.53907,-2.35938 -0.53906,-0.78125 -1.65625,-0.78125 -0.63281,0 -1.27343,0.27344 -0.64063,0.27344 -1.22657,0.71875 v 4.94531 q 0.625,0.28125 1.07032,0.38281 0.45312,0.10157 1.02343,0.10157 1.22657,0 1.91407,-0.82813 0.6875,-0.82812 0.6875,-2.45312 z m 16.95906,4.42968 h -1.46875 v -0.96875 q -0.74219,0.58594 -1.42188,0.89844 -0.67968,0.3125 -1.5,0.3125 -1.375,0 -2.14062,-0.83594 -0.76563,-0.84375 -0.76563,-2.46875 v -5.66406 h 1.46875 v 4.96875 q 0,0.66406 0.0625,1.14063 0.0625,0.46875 0.26563,0.80468 0.21094,0.34375 0.54687,0.5 0.33594,0.15625 0.97657,0.15625 0.57031,0 1.24218,-0.29687 0.67969,-0.29688 1.26563,-0.75781 v -6.51563 h 1.46875 z m 16.1075,0 h -1.46875 v -4.96875 q 0,-0.60156 -0.0703,-1.125 -0.0703,-0.53125 -0.25781,-0.82812 -0.19531,-0.32813 -0.5625,-0.48438 -0.36719,-0.16406 -0.95312,-0.16406 -0.60157,0 -1.25782,0.29688 -0.65625,0.29687 -1.25781,0.75781 v 6.51562 h -1.46875 v -8.72656 h 1.46875 v 0.96875 q 0.6875,-0.57031 1.42188,-0.89062 0.73437,-0.32032 1.50781,-0.32032 1.41406,0 2.15625,0.85157 0.74219,0.85156 0.74219,2.45312 z m 16.05282,-4.21093 h -6.42969 q 0,0.80468 0.24219,1.40625 0.24219,0.59375 0.66406,0.97656 0.40625,0.375 0.96094,0.5625 0.5625,0.1875 1.23438,0.1875 0.89062,0 1.78906,-0.35156 0.90625,-0.35938 1.28906,-0.70313 h 0.0781 v 1.60156 q -0.74219,0.3125 -1.51563,0.52344 -0.77344,0.21094 -1.625,0.21094 -2.17187,0 -3.39062,-1.17188 -1.21875,-1.17968 -1.21875,-3.34375 0,-2.14062 1.16406,-3.39843 1.17187,-1.25782 3.07812,-1.25782 1.76563,0 2.71875,1.03125 0.96094,1.03125 0.96094,2.92969 z m -1.42969,-1.125 q -0.008,-1.15625 -0.58593,-1.78907 -0.57032,-0.63281 -1.74219,-0.63281 -1.17969,0 -1.88281,0.69531 -0.69532,0.69532 -0.78907,1.72657 z"
       id="text8"
       transform="matrix(1.0390091,0,0,0.99999997,12.673838,-42.941333)"
       aria-label="...there is no spune" />
  </g>
</svg>
